<?xml version="1.0" encoding="UTF-8" standalone="no"?>
<svg width="13.083333333333334in" height="8.6875in" viewBox="0 0 1256 834"
   version="1.1" xmlns="http://www.w3.org/2000/svg" xmlns:svg="http://www.w3.org/2000/svg">
  <g>
    <polygon points="600,460.15625 596,422.15625 627,458.15625 " fill="#546745" stroke="#546745" />
    <polygon points="613,473.15625 627,458.15625 600,460.15625 " fill="#40472e" stroke="#40472e" />
    <polygon points="644,472.15625 653,449.15625 627,458.15625 " fill="#485437" stroke="#485437" />
    <polygon points="627,458.15625 596,422.15625 653,449.15625 " fill="#576c45" stroke="#576c45" />
    <polygon points="613,473.15625 627,458.15625 644,472.15625 " fill="#293022" stroke="#293022" />
    <polygon points="574,467.15625 596,422.15625 600,460.15625 " fill="#4d5f40" stroke="#4d5f40" />
    <polygon points="586,479.15625 600,460.15625 613,473.15625 " fill="#2a3020" stroke="#2a3020" />
    <polygon points="586,479.15625 600,460.15625 574,467.15625 " fill="#343a25" stroke="#343a25" />
    <polygon points="633,507.15625 644,472.15625 613,473.15625 " fill="#39503d" stroke="#39503d" />
    <polygon points="653,449.15625 662,412.15625 596,422.15625 " fill="#657a53" stroke="#657a53" />
    <polygon points="586,479.15625 574,467.15625 564,477.15625 " fill="#2c3526" stroke="#2c3526" />
    <polygon points="564,477.15625 552,466.15625 574,467.15625 " fill="#3b412b" stroke="#3b412b" />
    <polygon points="574,467.15625 535,423.15625 552,466.15625 " fill="#4e5f3e" stroke="#4e5f3e" />
    <polygon points="596,422.15625 617,371.15625 580,382.15625 " fill="#9eb99d" stroke="#9eb99d" />
    <polygon points="574,467.15625 596,422.15625 535,423.15625 " fill="#61744d" stroke="#61744d" />
    <polygon points="669,503.15625 670,472.15625 644,472.15625 " fill="#39503d" stroke="#39503d" />
    <polygon points="670,472.15625 653,449.15625 644,472.15625 " fill="#313a29" stroke="#313a29" />
    <polygon points="653,449.15625 662,412.15625 687,443.15625 " fill="#5f7249" stroke="#5f7249" />
    <polygon points="596,422.15625 643,380.15625 662,412.15625 " fill="#8fa990" stroke="#8fa990" />
    <polygon points="568,521.15625 586,479.15625 601,506.15625 " fill="#465e4a" stroke="#465e4a" />
    <polygon points="601,506.15625 613,473.15625 586,479.15625 " fill="#3c5443" stroke="#3c5443" />
    <polygon points="596,422.15625 617,371.15625 643,380.15625 " fill="#acc6ab" stroke="#acc6ab" />
    <polygon points="633,507.15625 613,473.15625 601,506.15625 " fill="#3b5241" stroke="#3b5241" />
    <polygon points="688,451.15625 687,443.15625 653,449.15625 " fill="#2f3423" stroke="#2f3423" />
    <polygon points="662,412.15625 668,357.15625 643,380.15625 " fill="#a7c2a8" stroke="#a7c2a8" />
    <polygon points="670,472.15625 653,449.15625 688,451.15625 " fill="#454e31" stroke="#454e31" />
    <polygon points="543,475.15625 552,466.15625 532,471.15625 " fill="#3b432c" stroke="#3b432c" />
    <polygon points="564,477.15625 552,466.15625 543,475.15625 " fill="#272a1c" stroke="#272a1c" />
    <polygon points="568,521.15625 564,477.15625 586,479.15625 " fill="#3c513f" stroke="#3c513f" />
    <polygon points="535,423.15625 580,382.15625 596,422.15625 " fill="#abc4a6" stroke="#abc4a6" />
    <polygon points="633,507.15625 644,472.15625 669,503.15625 " fill="#3d5644" stroke="#3d5644" />
    <polygon points="709,472.15625 688,451.15625 670,472.15625 " fill="#384833" stroke="#384833" />
    <polygon points="532,471.15625 535,423.15625 552,466.15625 " fill="#50603d" stroke="#50603d" />
    <polygon points="568,521.15625 543,475.15625 564,477.15625 " fill="#445b44" stroke="#445b44" />
    <polygon points="568,521.15625 543,475.15625 480,498.15625 " fill="#425742" stroke="#425742" />
    <polygon points="623,572.15625 601,506.15625 633,507.15625 " fill="#688660" stroke="#688660" />
    <polygon points="623,572.15625 669,503.15625 633,507.15625 " fill="#65815b" stroke="#65815b" />
    <polygon points="535,423.15625 580,382.15625 528,399.15625 " fill="#a3c2a4" stroke="#a3c2a4" />
    <polygon points="532,471.15625 535,423.15625 496,462.15625 " fill="#3f4d31" stroke="#3f4d31" />
    <polygon points="662,412.15625 713,352.15625 668,357.15625 " fill="#9fbba0" stroke="#9fbba0" />
    <polygon points="643,380.15625 668,357.15625 617,371.15625 " fill="#a2bea1" stroke="#a2bea1" />
    <polygon points="580,382.15625 588,340.15625 561,351.15625 " fill="#7d9174" stroke="#7d9174" />
    <polygon points="528,399.15625 561,351.15625 580,382.15625 " fill="#6c8161" stroke="#6c8161" />
    <polygon points="580,382.15625 588,340.15625 617,371.15625 " fill="#7d9474" stroke="#7d9474" />
    <polygon points="669,503.15625 709,472.15625 670,472.15625 " fill="#374b38" stroke="#374b38" />
    <polygon points="688,451.15625 717,435.15625 687,443.15625 " fill="#2c2f20" stroke="#2c2f20" />
    <polygon points="687,443.15625 662,412.15625 717,435.15625 " fill="#5f7048" stroke="#5f7048" />
    <polygon points="617,371.15625 622,323.15625 588,340.15625 " fill="#8ba283" stroke="#8ba283" />
    <polygon points="709,472.15625 717,435.15625 688,451.15625 " fill="#4e5737" stroke="#4e5737" />
    <polygon points="735,441.15625 728,430.15625 717,435.15625 " fill="#181711" stroke="#181711" />
    <polygon points="662,412.15625 713,352.15625 740,394.15625 " fill="#9fb797" stroke="#9fb797" />
    <polygon points="617,371.15625 622,323.15625 668,357.15625 " fill="#8ca386" stroke="#8ca386" />
    <polygon points="522,360.15625 518,336.15625 561,351.15625 " fill="#404d3d" stroke="#404d3d" />
    <polygon points="496,462.15625 535,423.15625 488,444.15625 " fill="#4b5937" stroke="#4b5937" />
    <polygon points="557,550.15625 480,498.15625 568,521.15625 " fill="#576f52" stroke="#576f52" />
    <polygon points="561,351.15625 573,311.15625 588,340.15625 " fill="#576d5d" stroke="#576d5d" />
    <polygon points="528,399.15625 561,351.15625 522,360.15625 " fill="#738669" stroke="#738669" />
    <polygon points="488,444.15625 528,399.15625 535,423.15625 " fill="#9cb290" stroke="#9cb290" />
    <polygon points="669,503.15625 709,472.15625 722,493.15625 " fill="#3e523c" stroke="#3e523c" />
    <polygon points="709,472.15625 717,435.15625 735,441.15625 " fill="#38442e" stroke="#38442e" />
    <polygon points="722,493.15625 735,441.15625 709,472.15625 " fill="#384b36" stroke="#384b36" />
    <polygon points="480,498.15625 532,471.15625 543,475.15625 " fill="#3b4e36" stroke="#3b4e36" />
    <polygon points="623,572.15625 601,506.15625 568,521.15625 " fill="#698560" stroke="#698560" />
    <polygon points="760,522.15625 722,493.15625 669,503.15625 " fill="#6d8459" stroke="#6d8459" />
    <polygon points="488,444.15625 463,393.15625 457,422.15625 " fill="#7e9473" stroke="#7e9473" />
    <polygon points="668,357.15625 678,325.15625 713,352.15625 " fill="#9eb89c" stroke="#9eb89c" />
    <polygon points="668,357.15625 622,323.15625 678,325.15625 " fill="#a8bda3" stroke="#a8bda3" />
    <polygon points="717,435.15625 740,394.15625 662,412.15625 " fill="#7e9564" stroke="#7e9564" />
    <polygon points="623,572.15625 568,521.15625 557,550.15625 " fill="#657d56" stroke="#657d56" />
    <polygon points="717,435.15625 740,394.15625 728,430.15625 " fill="#5e724b" stroke="#5e724b" />
    <polygon points="588,340.15625 611,305.15625 622,323.15625 " fill="#93af9f" stroke="#93af9f" />
    <polygon points="588,340.15625 611,305.15625 573,311.15625 " fill="#526658" stroke="#526658" />
    <polygon points="622,323.15625 644,298.15625 611,305.15625 " fill="#77947f" stroke="#77947f" />
    <polygon points="728,430.15625 740,394.15625 747,420.15625 " fill="#677d52" stroke="#677d52" />
    <polygon points="735,441.15625 747,420.15625 728,430.15625 " fill="#505636" stroke="#505636" />
    <polygon points="768,436.15625 761,417.15625 747,420.15625 " fill="#1f1f16" stroke="#1f1f16" />
    <polygon points="561,351.15625 573,311.15625 548,316.15625 " fill="#667c6c" stroke="#667c6c" />
    <polygon points="561,351.15625 525,325.15625 518,336.15625 " fill="#515f45" stroke="#515f45" />
    <polygon points="528,399.15625 522,360.15625 494,363.15625 " fill="#718262" stroke="#718262" />
    <polygon points="494,363.15625 518,336.15625 522,360.15625 " fill="#3b4739" stroke="#3b4739" />
    <polygon points="548,316.15625 554,308.15625 573,311.15625 " fill="#9f9582" stroke="#9f9582" />
    <polygon points="561,351.15625 548,316.15625 525,325.15625 " fill="#5b6653" stroke="#5b6653" />
    <polygon points="573,311.15625 563,303.15625 554,308.15625 " fill="#97917b" stroke="#97917b" />
    <polygon points="525,325.15625 540,298.15625 548,316.15625 " fill="#ab9c66" stroke="#ab9c66" />
    <polygon points="494,363.15625 494,324.15625 518,336.15625 " fill="#545e45" stroke="#545e45" />
    <polygon points="496,462.15625 488,444.15625 451,450.15625 " fill="#2a3422" stroke="#2a3422" />
    <polygon points="480,498.15625 451,450.15625 496,462.15625 " fill="#283529" stroke="#283529" />
    <polygon points="480,498.15625 496,462.15625 532,471.15625 " fill="#2e3d2f" stroke="#2e3d2f" />
    <polygon points="611,305.15625 632,278.15625 600,295.15625 " fill="#64704b" stroke="#64704b" />
    <polygon points="573,311.15625 600,295.15625 611,305.15625 " fill="#70805e" stroke="#70805e" />
    <polygon points="573,311.15625 585,285.15625 563,303.15625 " fill="#9caa83" stroke="#9caa83" />
    <polygon points="678,325.15625 651,296.15625 644,298.15625 " fill="#7d9075" stroke="#7d9075" />
    <polygon points="678,325.15625 644,298.15625 622,323.15625 " fill="#809276" stroke="#809276" />
    <polygon points="678,325.15625 678,275.15625 651,296.15625 " fill="#809379" stroke="#809379" />
    <polygon points="600,295.15625 612,263.15625 585,285.15625 " fill="#abbf9b" stroke="#abbf9b" />
    <polygon points="513,328.15625 512,313.15625 525,325.15625 " fill="#a2955d" stroke="#a2955d" />
    <polygon points="518,336.15625 525,325.15625 513,328.15625 " fill="#605336" stroke="#605336" />
    <polygon points="548,316.15625 540,298.15625 554,308.15625 " fill="#ad9e6a" stroke="#ad9e6a" />
    <polygon points="735,441.15625 747,420.15625 768,436.15625 " fill="#394633" stroke="#394633" />
    <polygon points="747,420.15625 740,394.15625 761,417.15625 " fill="#667a4d" stroke="#667a4d" />
    <polygon points="713,352.15625 728,329.15625 764,344.15625 " fill="#a2bca1" stroke="#a2bca1" />
    <polygon points="767,478.15625 768,436.15625 735,441.15625 " fill="#3c513b" stroke="#3c513b" />
    <polygon points="528,399.15625 494,363.15625 463,393.15625 " fill="#606f4c" stroke="#606f4c" />
    <polygon points="488,444.15625 463,393.15625 528,399.15625 " fill="#8ea88f" stroke="#8ea88f" />
    <polygon points="463,393.15625 494,363.15625 455,373.15625 " fill="#8c9d71" stroke="#8c9d71" />
    <polygon points="611,305.15625 632,278.15625 644,298.15625 " fill="#46533f" stroke="#46533f" />
    <polygon points="573,311.15625 585,285.15625 600,295.15625 " fill="#bad1b6" stroke="#bad1b6" />
    <polygon points="554,308.15625 540,298.15625 563,303.15625 " fill="#b0a269" stroke="#b0a269" />
    <polygon points="563,303.15625 570,274.15625 540,298.15625 " fill="#b4a46e" stroke="#b4a46e" />
    <polygon points="760,522.15625 767,478.15625 722,493.15625 " fill="#6c8151" stroke="#6c8151" />
    <polygon points="722,493.15625 735,441.15625 767,478.15625 " fill="#3b4e38" stroke="#3b4e38" />
    <polygon points="740,394.15625 764,344.15625 713,352.15625 " fill="#afc9b0" stroke="#afc9b0" />
    <polygon points="713,352.15625 678,325.15625 728,329.15625 " fill="#abc5af" stroke="#abc5af" />
    <polygon points="525,325.15625 540,298.15625 512,313.15625 " fill="#a0945a" stroke="#a0945a" />
    <polygon points="518,336.15625 494,324.15625 513,328.15625 " fill="#5c4f37" stroke="#5c4f37" />
    <polygon points="431,478.15625 389,447.15625 451,450.15625 " fill="#394734" stroke="#394734" />
    <polygon points="451,450.15625 457,422.15625 488,444.15625 " fill="#5e6b42" stroke="#5e6b42" />
    <polygon points="651,296.15625 650,258.15625 632,278.15625 " fill="#4a533b" stroke="#4a533b" />
    <polygon points="644,298.15625 632,278.15625 651,296.15625 " fill="#48533b" stroke="#48533b" />
    <polygon points="513,328.15625 512,313.15625 494,324.15625 " fill="#9f8a51" stroke="#9f8a51" />
    <polygon points="506,568.15625 480,498.15625 474,550.15625 " fill="#688560" stroke="#688560" />
    <polygon points="506,568.15625 480,498.15625 557,550.15625 " fill="#536a4d" stroke="#536a4d" />
    <polygon points="503,615.15625 557,550.15625 623,572.15625 " fill="#617341" stroke="#617341" />
    <polygon points="623,572.15625 669,503.15625 760,522.15625 " fill="#65794a" stroke="#65794a" />
    <polygon points="455,373.15625 473,330.15625 494,363.15625 " fill="#404a38" stroke="#404a38" />
    <polygon points="457,422.15625 463,393.15625 431,394.15625 " fill="#8faa87" stroke="#8faa87" />
    <polygon points="563,303.15625 570,274.15625 585,285.15625 " fill="#a7a67b" stroke="#a7a67b" />
    <polygon points="494,324.15625 484,301.15625 512,313.15625 " fill="#a79957" stroke="#a79957" />
    <polygon points="473,330.15625 474,319.15625 494,324.15625 " fill="#706746" stroke="#706746" />
    <polygon points="585,285.15625 583,265.15625 570,274.15625 " fill="#89aa84" stroke="#89aa84" />
    <polygon points="768,436.15625 781,414.15625 761,417.15625 " fill="#4f5c3c" stroke="#4f5c3c" />
    <polygon points="761,417.15625 740,394.15625 781,414.15625 " fill="#708553" stroke="#708553" />
    <polygon points="768,436.15625 781,414.15625 805,436.15625 " fill="#445a41" stroke="#445a41" />
    <polygon points="767,478.15625 805,436.15625 768,436.15625 " fill="#40553b" stroke="#40553b" />
    <polygon points="632,278.15625 650,258.15625 612,263.15625 " fill="#484c33" stroke="#484c33" />
    <polygon points="600,295.15625 612,263.15625 632,278.15625 " fill="#94a479" stroke="#94a479" />
    <polygon points="474,550.15625 480,498.15625 436,522.15625 " fill="#709068" stroke="#709068" />
    <polygon points="585,285.15625 612,263.15625 583,265.15625 " fill="#71845b" stroke="#71845b" />
    <polygon points="494,324.15625 484,301.15625 474,319.15625 " fill="#8c7e43" stroke="#8c7e43" />
    <polygon points="512,313.15625 516,283.15625 540,298.15625 " fill="#a09c61" stroke="#a09c61" />
    <polygon points="494,363.15625 494,324.15625 473,330.15625 " fill="#616c4d" stroke="#616c4d" />
    <polygon points="678,325.15625 678,275.15625 727,287.15625 " fill="#8ea890" stroke="#8ea890" />
    <polygon points="740,394.15625 764,344.15625 802,374.15625 " fill="#adc4a3" stroke="#adc4a3" />
    <polygon points="728,329.15625 727,287.15625 678,325.15625 " fill="#afccba" stroke="#afccba" />
    <polygon points="540,298.15625 541,263.15625 516,283.15625 " fill="#b3ab7d" stroke="#b3ab7d" />
    <polygon points="431,394.15625 455,373.15625 426,384.15625 " fill="#718b69" stroke="#718b69" />
    <polygon points="540,298.15625 541,263.15625 570,274.15625 " fill="#b4a777" stroke="#b4a777" />
    <polygon points="451,450.15625 457,422.15625 390,426.15625 " fill="#7e8e5e" stroke="#7e8e5e" />
    <polygon points="480,498.15625 451,450.15625 431,478.15625 " fill="#374838" stroke="#374838" />
    <polygon points="651,296.15625 650,258.15625 678,275.15625 " fill="#869c84" stroke="#869c84" />
    <polygon points="570,274.15625 564,255.15625 583,265.15625 " fill="#686748" stroke="#686748" />
    <polygon points="426,384.15625 443,309.15625 455,373.15625 " fill="#526448" stroke="#526448" />
    <polygon points="431,394.15625 455,373.15625 463,393.15625 " fill="#6f8158" stroke="#6f8158" />
    <polygon points="512,313.15625 502,285.15625 484,301.15625 " fill="#a59f5a" stroke="#a59f5a" />
    <polygon points="455,373.15625 443,309.15625 473,330.15625 " fill="#708158" stroke="#708158" />
    <polygon points="502,285.15625 506,251.15625 516,283.15625 " fill="#454637" stroke="#454637" />
    <polygon points="512,313.15625 516,283.15625 502,285.15625 " fill="#433c31" stroke="#433c31" />
    <polygon points="583,265.15625 561,239.15625 564,255.15625 " fill="#383a27" stroke="#383a27" />
    <polygon points="570,274.15625 564,255.15625 541,263.15625 " fill="#9a864f" stroke="#9a864f" />
    <polygon points="583,265.15625 602,234.15625 612,263.15625 " fill="#5c6644" stroke="#5c6644" />
    <polygon points="728,329.15625 727,287.15625 767,297.15625 " fill="#93b194" stroke="#93b194" />
    <polygon points="650,258.15625 653,211.15625 632,232.15625 " fill="#99bca9" stroke="#99bca9" />
    <polygon points="767,478.15625 805,436.15625 819,464.15625 " fill="#405438" stroke="#405438" />
    <polygon points="781,414.15625 802,374.15625 740,394.15625 " fill="#99b078" stroke="#99b078" />
    <polygon points="805,436.15625 803,411.15625 781,414.15625 " fill="#353b27" stroke="#353b27" />
    <polygon points="473,330.15625 443,309.15625 474,319.15625 " fill="#788256" stroke="#788256" />
    <polygon points="390,426.15625 431,394.15625 457,422.15625 " fill="#a8be97" stroke="#a8be97" />
    <polygon points="436,522.15625 431,478.15625 480,498.15625 " fill="#4d654e" stroke="#4d654e" />
    <polygon points="818,412.15625 802,374.15625 803,411.15625 " fill="#869b6b" stroke="#869b6b" />
    <polygon points="781,414.15625 802,374.15625 803,411.15625 " fill="#7a8d5f" stroke="#7a8d5f" />
    <polygon points="764,344.15625 767,297.15625 728,329.15625 " fill="#9db798" stroke="#9db798" />
    <polygon points="564,255.15625 561,239.15625 547,248.15625 " fill="#4f5230" stroke="#4f5230" />
    <polygon points="541,263.15625 547,248.15625 564,255.15625 " fill="#7b6a3d" stroke="#7b6a3d" />
    <polygon points="516,283.15625 527,245.15625 541,263.15625 " fill="#918b5f" stroke="#918b5f" />
    <polygon points="612,263.15625 632,232.15625 650,258.15625 " fill="#839877" stroke="#839877" />
    <polygon points="612,263.15625 632,232.15625 602,234.15625 " fill="#809478" stroke="#809478" />
    <polygon points="446,586.15625 474,550.15625 506,568.15625 " fill="#3c4f39" stroke="#3c4f39" />
    <polygon points="503,615.15625 506,568.15625 446,586.15625 " fill="#576c45" stroke="#576c45" />
    <polygon points="503,615.15625 557,550.15625 506,568.15625 " fill="#607549" stroke="#607549" />
    <polygon points="583,265.15625 602,234.15625 561,239.15625 " fill="#5e6c4e" stroke="#5e6c4e" />
    <polygon points="805,436.15625 803,411.15625 818,412.15625 " fill="#576442" stroke="#576442" />
    <polygon points="805,436.15625 818,412.15625 834,413.15625 " fill="#37422e" stroke="#37422e" />
    <polygon points="823,497.15625 819,464.15625 767,478.15625 " fill="#63774a" stroke="#63774a" />
    <polygon points="678,275.15625 694,239.15625 650,258.15625 " fill="#74947e" stroke="#74947e" />
    <polygon points="764,344.15625 767,297.15625 818,307.15625 " fill="#99b297" stroke="#99b297" />
    <polygon points="678,275.15625 694,239.15625 731,257.15625 " fill="#8bac8f" stroke="#8bac8f" />
    <polygon points="541,263.15625 531,242.15625 547,248.15625 " fill="#7e6b40" stroke="#7e6b40" />
    <polygon points="541,263.15625 531,242.15625 527,245.15625 " fill="#817250" stroke="#817250" />
    <polygon points="474,319.15625 451,292.15625 484,301.15625 " fill="#827338" stroke="#827338" />
    <polygon points="531,242.15625 534,229.15625 513,242.15625 " fill="#687659" stroke="#687659" />
    <polygon points="547,248.15625 534,229.15625 531,242.15625 " fill="#61684f" stroke="#61684f" />
    <polygon points="484,301.15625 477,266.15625 451,292.15625 " fill="#8a7b41" stroke="#8a7b41" />
    <polygon points="474,319.15625 451,292.15625 443,309.15625 " fill="#434030" stroke="#434030" />
    <polygon points="506,251.15625 513,242.15625 527,245.15625 " fill="#554428" stroke="#554428" />
    <polygon points="516,283.15625 527,245.15625 506,251.15625 " fill="#7a7752" stroke="#7a7752" />
    <polygon points="727,287.15625 731,257.15625 678,275.15625 " fill="#97b89d" stroke="#97b89d" />
    <polygon points="727,287.15625 731,257.15625 760,271.15625 " fill="#97b78e" stroke="#97b78e" />
    <polygon points="484,301.15625 477,266.15625 502,285.15625 " fill="#8b7f46" stroke="#8b7f46" />
    <polygon points="760,522.15625 767,478.15625 823,497.15625 " fill="#6c7d4a" stroke="#6c7d4a" />
    <polygon points="851,454.15625 834,413.15625 805,436.15625 " fill="#405036" stroke="#405036" />
    <polygon points="502,285.15625 506,251.15625 477,266.15625 " fill="#706c3b" stroke="#706c3b" />
    <polygon points="527,245.15625 531,242.15625 513,242.15625 " fill="#3a2e18" stroke="#3a2e18" />
    <polygon points="477,266.15625 487,246.15625 506,251.15625 " fill="#5c4f27" stroke="#5c4f27" />
    <polygon points="547,248.15625 534,229.15625 561,239.15625 " fill="#728163" stroke="#728163" />
    <polygon points="446,586.15625 436,522.15625 474,550.15625 " fill="#435a43" stroke="#435a43" />
    <polygon points="390,426.15625 352,378.15625 426,384.15625 " fill="#6d8b74" stroke="#6d8b74" />
    <polygon points="390,426.15625 426,384.15625 431,394.15625 " fill="#728f70" stroke="#728f70" />
    <polygon points="436,522.15625 431,478.15625 385,483.15625 " fill="#475d46" stroke="#475d46" />
    <polygon points="395,596.15625 436,522.15625 446,586.15625 " fill="#3a4f3c" stroke="#3a4f3c" />
    <polygon points="451,450.15625 390,426.15625 389,447.15625 " fill="#5b633b" stroke="#5b633b" />
    <polygon points="818,412.15625 837,374.15625 802,374.15625 " fill="#a9b985" stroke="#a9b985" />
    <polygon points="802,374.15625 764,344.15625 817,345.15625 " fill="#adc3a6" stroke="#adc3a6" />
    <polygon points="819,464.15625 805,436.15625 851,454.15625 " fill="#3d4e35" stroke="#3d4e35" />
    <polygon points="767,297.15625 760,271.15625 727,287.15625 " fill="#95b48f" stroke="#95b48f" />
    <polygon points="767,297.15625 760,271.15625 812,272.15625 " fill="#8aa879" stroke="#8aa879" />
    <polygon points="561,239.15625 560,208.15625 534,229.15625 " fill="#839c82" stroke="#839c82" />
    <polygon points="561,239.15625 593,204.15625 602,234.15625 " fill="#768a6f" stroke="#768a6f" />
    <polygon points="802,374.15625 817,345.15625 837,374.15625 " fill="#b6c9ac" stroke="#b6c9ac" />
    <polygon points="513,242.15625 496,229.15625 494,242.15625 " fill="#707759" stroke="#707759" />
    <polygon points="506,251.15625 513,242.15625 494,242.15625 " fill="#483820" stroke="#483820" />
    <polygon points="451,292.15625 461,259.15625 477,266.15625 " fill="#726335" stroke="#726335" />
    <polygon points="506,251.15625 494,242.15625 487,246.15625 " fill="#403119" stroke="#403119" />
    <polygon points="368,531.15625 331,458.15625 385,483.15625 " fill="#3f5642" stroke="#3f5642" />
    <polygon points="385,483.15625 389,447.15625 431,478.15625 " fill="#415643" stroke="#415643" />
    <polygon points="650,258.15625 653,211.15625 694,239.15625 " fill="#9bbba3" stroke="#9bbba3" />
    <polygon points="602,234.15625 593,204.15625 632,232.15625 " fill="#709386" stroke="#709386" />
    <polygon points="834,413.15625 837,374.15625 818,412.15625 " fill="#879661" stroke="#879661" />
    <polygon points="461,259.15625 453,240.15625 487,246.15625 " fill="#3d361d" stroke="#3d361d" />
    <polygon points="477,266.15625 487,246.15625 461,259.15625 " fill="#60502e" stroke="#60502e" />
    <polygon points="443,309.15625 451,292.15625 418,294.15625 " fill="#4f5c40" stroke="#4f5c40" />
    <polygon points="426,384.15625 443,309.15625 390,331.15625 " fill="#49563b" stroke="#49563b" />
    <polygon points="632,232.15625 593,204.15625 653,211.15625 " fill="#7d9b83" stroke="#7d9b83" />
    <polygon points="513,242.15625 514,223.15625 534,229.15625 " fill="#93ad90" stroke="#93ad90" />
    <polygon points="561,239.15625 593,204.15625 560,208.15625 " fill="#7e967e" stroke="#7e967e" />
    <polygon points="534,229.15625 526,195.15625 514,223.15625 " fill="#879e85" stroke="#879e85" />
    <polygon points="487,246.15625 496,229.15625 494,242.15625 " fill="#666a4f" stroke="#666a4f" />
    <polygon points="823,497.15625 851,454.15625 819,464.15625 " fill="#627346" stroke="#627346" />
    <polygon points="834,413.15625 837,374.15625 869,412.15625 " fill="#8f9e6b" stroke="#8f9e6b" />
    <polygon points="513,242.15625 514,223.15625 496,229.15625 " fill="#94a77e" stroke="#94a77e" />
    <polygon points="433,276.15625 453,240.15625 461,259.15625 " fill="#5f6135" stroke="#5f6135" />
    <polygon points="451,292.15625 461,259.15625 433,276.15625 " fill="#332f1e" stroke="#332f1e" />
    <polygon points="418,294.15625 433,276.15625 451,292.15625 " fill="#525c3e" stroke="#525c3e" />
    <polygon points="817,345.15625 818,307.15625 854,333.15625 " fill="#b1c7b1" stroke="#b1c7b1" />
    <polygon points="817,345.15625 818,307.15625 764,344.15625 " fill="#a1b99c" stroke="#a1b99c" />
    <polygon points="390,331.15625 418,294.15625 443,309.15625 " fill="#4e563b" stroke="#4e563b" />
    <polygon points="385,483.15625 389,447.15625 331,458.15625 " fill="#384936" stroke="#384936" />
    <polygon points="418,294.15625 407,270.15625 433,276.15625 " fill="#5a694f" stroke="#5a694f" />
    <polygon points="390,331.15625 368,286.15625 418,294.15625 " fill="#626f56" stroke="#626f56" />
    <polygon points="487,246.15625 496,229.15625 453,240.15625 " fill="#78825e" stroke="#78825e" />
    <polygon points="453,240.15625 466,197.15625 442,225.15625 " fill="#4e5d3d" stroke="#4e5d3d" />
    <polygon points="496,229.15625 485,174.15625 466,197.15625 " fill="#778c66" stroke="#778c66" />
    <polygon points="851,454.15625 869,412.15625 834,413.15625 " fill="#495739" stroke="#495739" />
    <polygon points="837,374.15625 854,333.15625 817,345.15625 " fill="#adc2ac" stroke="#adc2ac" />
    <polygon points="560,208.15625 544,181.15625 526,195.15625 " fill="#92ab8f" stroke="#92ab8f" />
    <polygon points="534,229.15625 526,195.15625 560,208.15625 " fill="#82987e" stroke="#82987e" />
    <polygon points="560,208.15625 584,164.15625 544,181.15625 " fill="#9fbda1" stroke="#9fbda1" />
    <polygon points="389,447.15625 390,426.15625 331,437.15625 " fill="#839060" stroke="#839060" />
    <polygon points="368,531.15625 385,483.15625 436,522.15625 " fill="#5e795a" stroke="#5e795a" />
    <polygon points="818,307.15625 867,271.15625 812,272.15625 " fill="#99b489" stroke="#99b489" />
    <polygon points="818,307.15625 812,272.15625 767,297.15625 " fill="#8eaa81" stroke="#8eaa81" />
    <polygon points="837,374.15625 854,333.15625 868,367.15625 " fill="#b6ccb6" stroke="#b6ccb6" />
    <polygon points="869,412.15625 868,367.15625 837,374.15625 " fill="#a5b283" stroke="#a5b283" />
    <polygon points="433,276.15625 417,237.15625 407,270.15625 " fill="#657a5a" stroke="#657a5a" />
    <polygon points="352,378.15625 390,331.15625 335,339.15625 " fill="#333c2d" stroke="#333c2d" />
    <polygon points="426,384.15625 390,331.15625 352,378.15625 " fill="#3c4832" stroke="#3c4832" />
    <polygon points="560,208.15625 584,164.15625 593,204.15625 " fill="#94b093" stroke="#94b093" />
    <polygon points="453,240.15625 466,197.15625 496,229.15625 " fill="#606f50" stroke="#606f50" />
    <polygon points="395,596.15625 436,522.15625 368,531.15625 " fill="#475f48" stroke="#475f48" />
    <polygon points="444,654.15625 446,586.15625 503,615.15625 " fill="#56683a" stroke="#56683a" />
    <polygon points="851,454.15625 869,412.15625 880,442.15625 " fill="#4c6141" stroke="#4c6141" />
    <polygon points="869,412.15625 868,367.15625 878,405.15625 " fill="#818e61" stroke="#818e61" />
    <polygon points="897,471.15625 880,442.15625 851,454.15625 " fill="#6a7c4d" stroke="#6a7c4d" />
    <polygon points="899,431.15625 878,405.15625 869,412.15625 " fill="#323d2a" stroke="#323d2a" />
    <polygon points="429,657.15625 446,586.15625 444,654.15625 " fill="#54663a" stroke="#54663a" />
    <polygon points="433,276.15625 417,237.15625 453,240.15625 " fill="#6b7a50" stroke="#6b7a50" />
    <polygon points="496,229.15625 485,174.15625 514,223.15625 " fill="#798f70" stroke="#798f70" />
    <polygon points="653,211.15625 584,164.15625 593,204.15625 " fill="#9eba97" stroke="#9eba97" />
    <polygon points="331,437.15625 352,378.15625 390,426.15625 " fill="#7a977b" stroke="#7a977b" />
    <polygon points="453,240.15625 442,225.15625 417,237.15625 " fill="#748b60" stroke="#748b60" />
    <polygon points="418,294.15625 407,270.15625 368,286.15625 " fill="#738d76" stroke="#738d76" />
    <polygon points="331,458.15625 331,437.15625 389,447.15625 " fill="#5e663c" stroke="#5e663c" />
    <polygon points="399,649.15625 395,596.15625 308,646.15625 " fill="#5a6f40" stroke="#5a6f40" />
    <polygon points="514,223.15625 485,174.15625 526,195.15625 " fill="#7a9578" stroke="#7a9578" />
    <polygon points="526,195.15625 520,155.15625 485,174.15625 " fill="#a3bf9f" stroke="#a3bf9f" />
    <polygon points="429,657.15625 446,586.15625 395,596.15625 " fill="#5c7447" stroke="#5c7447" />
    <polygon points="823,497.15625 851,454.15625 897,471.15625 " fill="#73834f" stroke="#73834f" />
    <polygon points="880,442.15625 869,412.15625 899,431.15625 " fill="#4f6545" stroke="#4f6545" />
    <polygon points="878,405.15625 868,367.15625 902,396.15625 " fill="#879562" stroke="#879562" />
    <polygon points="897,471.15625 899,431.15625 880,442.15625 " fill="#6f814f" stroke="#6f814f" />
    <polygon points="854,333.15625 870,300.15625 889,320.15625 " fill="#a3bda1" stroke="#a3bda1" />
    <polygon points="368,286.15625 377,256.15625 407,270.15625 " fill="#819e7a" stroke="#819e7a" />
    <polygon points="331,437.15625 352,378.15625 303,421.15625 " fill="#718e75" stroke="#718e75" />
    <path d="M 103 419.15625 L 25 475.15625 L 0 509.15625 L 2 832.15625 L 350 833.15625 L 369 797.15625 L 401 746.15625 L 416 716.15625 L 441 689.15625 L 503 615.15625 L 444 654.15625 L 429 657.15625 L 399 649.15625 L 308 646.15625 L 241 622.15625 L 198 608.15625 L 153 574.15625 L 119 523.15625 L 93 463.15625 L 103 419.15625 z " fill="#354335" stroke="#354335" />
    <polygon points="933,399.15625 919,386.15625 902,396.15625 " fill="#2a3221" stroke="#2a3221" />
    <polygon points="899,431.15625 902,396.15625 878,405.15625 " fill="#4e5a3a" stroke="#4e5a3a" />
    <polygon points="854,333.15625 870,300.15625 818,307.15625 " fill="#a6bfa5" stroke="#a6bfa5" />
    <polygon points="868,367.15625 889,320.15625 854,333.15625 " fill="#aac1a9" stroke="#aac1a9" />
    <polygon points="526,195.15625 520,155.15625 544,181.15625 " fill="#aec7ac" stroke="#aec7ac" />
    <polygon points="335,339.15625 368,286.15625 390,331.15625 " fill="#636f4e" stroke="#636f4e" />
    <polygon points="407,270.15625 417,237.15625 377,256.15625 " fill="#84a277" stroke="#84a277" />
    <polygon points="312,353.15625 307,328.15625 335,339.15625 " fill="#46563d" stroke="#46563d" />
    <polygon points="429,657.15625 395,596.15625 399,649.15625 " fill="#506137" stroke="#506137" />
    <polygon points="395,596.15625 368,531.15625 311,578.15625 " fill="#334533" stroke="#334533" />
    <polygon points="544,181.15625 520,155.15625 584,164.15625 " fill="#a1c098" stroke="#a1c098" />
    <polygon points="868,367.15625 889,320.15625 923,343.15625 " fill="#aec4a6" stroke="#aec4a6" />
    <polygon points="870,300.15625 867,271.15625 929,287.15625 " fill="#7f9971" stroke="#7f9971" />
    <polygon points="818,307.15625 867,271.15625 870,300.15625 " fill="#8ca67b" stroke="#8ca67b" />
    <polygon points="303,421.15625 312,353.15625 352,378.15625 " fill="#4c5e47" stroke="#4c5e47" />
    <polygon points="331,458.15625 303,421.15625 331,437.15625 " fill="#829871" stroke="#829871" />
    <polygon points="313,543.15625 331,458.15625 368,531.15625 " fill="#40533b" stroke="#40533b" />
    <polygon points="902,396.15625 868,367.15625 919,386.15625 " fill="#829263" stroke="#829263" />
    <polygon points="889,320.15625 929,287.15625 870,300.15625 " fill="#778e6d" stroke="#778e6d" />
    <polygon points="899,431.15625 902,396.15625 933,399.15625 " fill="#47593d" stroke="#47593d" />
    <polygon points="335,339.15625 312,308.15625 307,328.15625 " fill="#42513b" stroke="#42513b" />
    <polygon points="352,378.15625 335,339.15625 312,353.15625 " fill="#42533f" stroke="#42533f" />
    <polygon points="313,543.15625 331,458.15625 225,533.15625 " fill="#4d6046" stroke="#4d6046" />
    <polygon points="899,431.15625 933,399.15625 955,417.15625 " fill="#65794c" stroke="#65794c" />
    <polygon points="919,386.15625 923,343.15625 868,367.15625 " fill="#a3b281" stroke="#a3b281" />
    <polygon points="335,339.15625 368,286.15625 312,308.15625 " fill="#4f5d46" stroke="#4f5d46" />
    <polygon points="303,421.15625 282,350.15625 312,353.15625 " fill="#43513e" stroke="#43513e" />
    <polygon points="919,386.15625 923,343.15625 934,376.15625 " fill="#7b8b60" stroke="#7b8b60" />
    <polygon points="312,308.15625 309,280.15625 368,286.15625 " fill="#809a70" stroke="#809a70" />
    <polygon points="933,399.15625 934,376.15625 919,386.15625 " fill="#4d5939" stroke="#4d5939" />
    <polygon points="311,578.15625 313,543.15625 264,569.15625 " fill="#2d3d2d" stroke="#2d3d2d" />
    <polygon points="311,578.15625 368,531.15625 313,543.15625 " fill="#2c3c2c" stroke="#2c3c2c" />
    <polygon points="934,376.15625 940,368.15625 971,370.15625 " fill="#313928" stroke="#313928" />
    <polygon points="934,376.15625 923,343.15625 940,368.15625 " fill="#7c8e66" stroke="#7c8e66" />
    <polygon points="282,350.15625 251,324.15625 307,328.15625 " fill="#343e30" stroke="#343e30" />
    <polygon points="312,353.15625 307,328.15625 282,350.15625 " fill="#455238" stroke="#455238" />
    <polygon points="264,569.15625 225,533.15625 313,543.15625 " fill="#2a3624" stroke="#2a3624" />
    <polygon points="368,286.15625 377,256.15625 309,280.15625 " fill="#83a170" stroke="#83a170" />
    <polygon points="307,328.15625 312,308.15625 251,324.15625 " fill="#5e6f53" stroke="#5e6f53" />
    <polygon points="897,471.15625 899,431.15625 968,436.15625 " fill="#798951" stroke="#798951" />
    <polygon points="968,436.15625 955,417.15625 899,431.15625 " fill="#76884f" stroke="#76884f" />
    <polygon points="933,399.15625 971,370.15625 934,376.15625 " fill="#48583b" stroke="#48583b" />
    <polygon points="923,343.15625 929,287.15625 889,320.15625 " fill="#95ae8f" stroke="#95ae8f" />
    <polygon points="923,343.15625 929,287.15625 961,312.15625 " fill="#7d916e" stroke="#7d916e" />
    <polygon points="940,368.15625 923,343.15625 963,346.15625 " fill="#859864" stroke="#859864" />
    <polygon points="971,370.15625 963,346.15625 940,368.15625 " fill="#505b3e" stroke="#505b3e" />
    <polygon points="955,417.15625 971,370.15625 933,399.15625 " fill="#596b42" stroke="#596b42" />
    <polygon points="955,417.15625 971,370.15625 988,387.15625 " fill="#5f6e40" stroke="#5f6e40" />
    <polygon points="308,646.15625 311,578.15625 241,622.15625 " fill="#324129" stroke="#324129" />
    <polygon points="308,646.15625 311,578.15625 395,596.15625 " fill="#435a3f" stroke="#435a3f" />
    <polygon points="225,533.15625 303,421.15625 331,458.15625 " fill="#545f40" stroke="#545f40" />
    <polygon points="963,346.15625 961,312.15625 976,334.15625 " fill="#879762" stroke="#879762" />
    <polygon points="963,346.15625 961,312.15625 923,343.15625 " fill="#adbf8e" stroke="#adbf8e" />
    <polygon points="971,370.15625 976,334.15625 997,339.15625 " fill="#393e2c" stroke="#393e2c" />
    <polygon points="971,370.15625 976,334.15625 963,346.15625 " fill="#363926" stroke="#363926" />
    <polygon points="251,324.15625 246,293.15625 312,308.15625 " fill="#7b9770" stroke="#7b9770" />
    <polygon points="303,421.15625 282,350.15625 236,356.15625 " fill="#34402f" stroke="#34402f" />
    <polygon points="312,308.15625 309,280.15625 246,293.15625 " fill="#809d71" stroke="#809d71" />
    <polygon points="968,436.15625 988,387.15625 955,417.15625 " fill="#728149" stroke="#728149" />
    <polygon points="236,356.15625 251,324.15625 282,350.15625 " fill="#293023" stroke="#293023" />
    <polygon points="961,312.15625 959,253.15625 929,287.15625 " fill="#829a75" stroke="#829a75" />
    <polygon points="961,312.15625 959,253.15625 985,304.15625 " fill="#7e967b" stroke="#7e967b" />
    <polygon points="976,334.15625 985,304.15625 961,312.15625 " fill="#a2b582" stroke="#a2b582" />
    <polygon points="236,356.15625 251,324.15625 223,334.15625 " fill="#536045" stroke="#536045" />
    <polygon points="997,339.15625 985,304.15625 976,334.15625 " fill="#7c8655" stroke="#7c8655" />
    <polygon points="971,370.15625 997,339.15625 1008,360.15625 " fill="#4e6146" stroke="#4e6146" />
    <polygon points="225,533.15625 236,356.15625 303,421.15625 " fill="#65785a" stroke="#65785a" />
    <polygon points="223,334.15625 246,293.15625 251,324.15625 " fill="#759568" stroke="#759568" />
    <polygon points="225,533.15625 236,356.15625 136,376.15625 " fill="#5f755f" stroke="#5f755f" />
    <polygon points="1033,403.15625 1008,360.15625 988,387.15625 " fill="#697743" stroke="#697743" />
    <polygon points="988,387.15625 1008,360.15625 971,370.15625 " fill="#63774a" stroke="#63774a" />
    <polygon points="997,339.15625 1015,301.15625 985,304.15625 " fill="#a0b183" stroke="#a0b183" />
    <polygon points="241,622.15625 264,569.15625 311,578.15625 " fill="#263323" stroke="#263323" />
    <polygon points="241,622.15625 264,569.15625 198,608.15625 " fill="#2e3d26" stroke="#2e3d26" />
    <polygon points="1008,360.15625 1013,337.15625 997,339.15625 " fill="#545934" stroke="#545934" />
    <polygon points="985,304.15625 959,253.15625 994,261.15625 " fill="#6b8062" stroke="#6b8062" />
    <polygon points="985,304.15625 994,261.15625 1018,277.15625 " fill="#839e84" stroke="#839e84" />
    <polygon points="968,436.15625 988,387.15625 1033,403.15625 " fill="#737e45" stroke="#737e45" />
    <polygon points="1008,360.15625 1013,337.15625 1031,339.15625 " fill="#353621" stroke="#353621" />
    <polygon points="997,339.15625 1015,301.15625 1013,337.15625 " fill="#82905d" stroke="#82905d" />
    <polygon points="1031,339.15625 1015,301.15625 1013,337.15625 " fill="#7d8a59" stroke="#7d8a59" />
    <polygon points="194,345.15625 246,293.15625 223,334.15625 " fill="#7ca761" stroke="#7ca761" />
    <polygon points="236,356.15625 223,334.15625 194,345.15625 " fill="#506247" stroke="#506247" />
    <polygon points="994,261.15625 1039,229.15625 991,235.15625 " fill="#667a64" stroke="#667a64" />
    <polygon points="994,261.15625 991,235.15625 959,253.15625 " fill="#6a7e56" stroke="#6a7e56" />
    <polygon points="1054,371.15625 1031,339.15625 1008,360.15625 " fill="#3f4931" stroke="#3f4931" />
    <polygon points="985,304.15625 1018,277.15625 1015,301.15625 " fill="#9db69f" stroke="#9db69f" />
    <polygon points="1015,301.15625 1018,277.15625 1052,298.15625 " fill="#91a993" stroke="#91a993" />
    <polygon points="198,608.15625 225,533.15625 264,569.15625 " fill="#273321" stroke="#273321" />
    <polygon points="1033,403.15625 1008,360.15625 1054,371.15625 " fill="#6b7743" stroke="#6b7743" />
    <polygon points="1031,339.15625 1052,298.15625 1015,301.15625 " fill="#86976b" stroke="#86976b" />
    <polygon points="991,235.15625 995,207.15625 1039,229.15625 " fill="#4d573c" stroke="#4d573c" />
    <polygon points="1018,277.15625 1047,248.15625 994,261.15625 " fill="#748a73" stroke="#748a73" />
    <polygon points="1054,371.15625 1052,334.15625 1031,339.15625 " fill="#4c5433" stroke="#4c5433" />
    <polygon points="1033,403.15625 1107,351.15625 1054,371.15625 " fill="#6a723d" stroke="#6a723d" />
    <polygon points="1052,334.15625 1052,298.15625 1082,323.15625 " fill="#7c895d" stroke="#7c895d" />
    <polygon points="1031,339.15625 1052,298.15625 1052,334.15625 " fill="#758357" stroke="#758357" />
    <polygon points="1052,298.15625 1047,248.15625 1018,277.15625 " fill="#849c8a" stroke="#849c8a" />
    <polygon points="198,608.15625 225,533.15625 153,574.15625 " fill="#2b3825" stroke="#2b3825" />
    <polygon points="994,261.15625 1039,229.15625 1047,248.15625 " fill="#7c9686" stroke="#7c9686" />
    <polygon points="153,574.15625 119,523.15625 225,533.15625 " fill="#303b29" stroke="#303b29" />
    <polygon points="136,376.15625 194,345.15625 236,356.15625 " fill="#647c5b" stroke="#647c5b" />
    <polygon points="1052,298.15625 1047,248.15625 1073,260.15625 " fill="#8ea592" stroke="#8ea592" />
    <polygon points="1039,229.15625 1038,204.15625 1057,224.15625 " fill="#8ca086" stroke="#8ca086" />
    <polygon points="1054,371.15625 1082,323.15625 1052,334.15625 " fill="#434c32" stroke="#434c32" />
    <polygon points="1054,371.15625 1082,323.15625 1107,351.15625 " fill="#5a653e" stroke="#5a653e" />
    <polygon points="1047,248.15625 1057,224.15625 1039,229.15625 " fill="#aecac2" stroke="#aecac2" />
    <polygon points="1039,229.15625 1038,204.15625 995,207.15625 " fill="#74896b" stroke="#74896b" />
    <polygon points="1082,323.15625 1078,292.15625 1052,298.15625 " fill="#98a87a" stroke="#98a87a" />
    <polygon points="1047,248.15625 1057,224.15625 1080,234.15625 " fill="#a2beb4" stroke="#a2beb4" />
    <polygon points="1052,298.15625 1073,260.15625 1078,292.15625 " fill="#95aa8d" stroke="#95aa8d" />
    <polygon points="225,533.15625 93,463.15625 119,523.15625 " fill="#404d3a" stroke="#404d3a" />
    <polygon points="1108,299.15625 1101,278.15625 1078,292.15625 " fill="#92a47e" stroke="#92a47e" />
    <polygon points="1073,260.15625 1080,234.15625 1109,256.15625 " fill="#8faa98" stroke="#8faa98" />
    <polygon points="225,533.15625 136,376.15625 103,419.15625 " fill="#586c54" stroke="#586c54" />
    <polygon points="1080,234.15625 1067,209.15625 1057,224.15625 " fill="#819882" stroke="#819882" />
    <polygon points="1057,224.15625 1038,204.15625 1067,209.15625 " fill="#92a686" stroke="#92a686" />
    <polygon points="1073,260.15625 1080,234.15625 1047,248.15625 " fill="#8ba99b" stroke="#8ba99b" />
    <polygon points="1078,292.15625 1073,260.15625 1101,278.15625 " fill="#91a58d" stroke="#91a58d" />
    <polygon points="1082,323.15625 1078,292.15625 1108,299.15625 " fill="#88976c" stroke="#88976c" />
    <polygon points="1123,324.15625 1108,299.15625 1082,323.15625 " fill="#70805d" stroke="#70805d" />
    <polygon points="225,533.15625 103,419.15625 93,463.15625 " fill="#4a5843" stroke="#4a5843" />
    <polygon points="1107,351.15625 1082,323.15625 1123,324.15625 " fill="#79885a" stroke="#79885a" />
    <polygon points="1101,278.15625 1109,256.15625 1134,262.15625 " fill="#9bac86" stroke="#9bac86" />
    <polygon points="1101,278.15625 1109,256.15625 1073,260.15625 " fill="#99af98" stroke="#99af98" />
    <polygon points="1108,299.15625 1101,278.15625 1127,290.15625 " fill="#85946a" stroke="#85946a" />
    <polygon points="1116,238.15625 1067,209.15625 1080,234.15625 " fill="#738f74" stroke="#738f74" />
    <polygon points="1123,324.15625 1127,290.15625 1108,299.15625 " fill="#788657" stroke="#788657" />
    <polygon points="1134,262.15625 1116,238.15625 1109,256.15625 " fill="#9db493" stroke="#9db493" />
    <polygon points="1109,256.15625 1080,234.15625 1116,238.15625 " fill="#7f9980" stroke="#7f9980" />
    <polygon points="1127,290.15625 1101,278.15625 1135,280.15625 " fill="#859265" stroke="#859265" />
    <polygon points="1135,280.15625 1134,262.15625 1101,278.15625 " fill="#a2b386" stroke="#a2b386" />
  </g>
  <text y="800" x="450" fill="black" style="font-family:sans-serif;font-size:150;">tryalligator</text>
</svg>
